<svg xmlns="http://www.w3.org/2000/svg" xmlns:v="https://svgstorm.com" viewBox="287.31 285.31 447.09 448.54">
<g fill="None" fill-opacity="0.0" stroke="#F4F4F4" stroke-opacity="1.00" stroke-width="0.3">
</g>
<g fill="None" fill-opacity="0.0" stroke="#6E767F" stroke-opacity="1.00" stroke-width="0.3"><path d=" M 496.00 286.00  C 504.00 286.00 512.00 286.00 520.00 286.00 C 512.52 285.28 503.55 285.27 496.00 286.00 Z" data-index="1"/>
</g>
<g fill="None" fill-opacity="0.0" stroke="#0B1B36" stroke-opacity="1.00" stroke-width="0.3"><path d=" M 288.00 496.00  C 288.00 504.00 288.00 512.00 288.00 520.00 C 288.00 564.93 306.86 608.85 333.00 644.00 C 333.04 643.45 334.84 641.53 335.00 641.00 C 339.19 627.48 341.17 612.73 345.00 599.00 C 346.41 593.94 348.47 589.21 351.00 585.00 C 355.45 573.93 362.17 563.01 369.75 553.75 C 377.33 544.49 385.88 535.82 395.23 528.23 C 404.58 520.64 415.24 513.39 426.23 508.23 C 437.22 503.07 448.61 497.11 459.25 491.25 C 469.88 485.38 481.74 479.74 491.70 472.70 C 501.66 465.65 510.55 457.79 518.30 448.30 C 526.06 438.82 532.14 427.63 536.99 416.99 C 541.84 406.35 551.79 387.63 538.31 382.69 C 524.82 377.76 518.09 369.56 505.00 365.00 C 515.60 357.88 528.03 352.82 540.00 348.00 C 546.44 344.71 552.83 340.30 560.00 338.00 C 569.61 334.92 578.49 329.42 588.00 326.00 C 591.90 324.01 595.46 321.51 600.00 320.00 C 604.78 318.41 611.69 316.47 616.00 314.00 C 616.23 313.87 617.10 312.29 617.00 312.00 C 587.90 296.30 553.81 286.00 520.00 286.00 C 512.00 286.00 504.00 286.00 496.00 286.00 C 388.31 286.00 288.00 389.33 288.00 496.00 M 509.00 400.00  C 511.24 403.85 510.00 411.26 510.00 416.00 C 510.00 419.52 510.80 424.30 509.00 427.00 C 505.41 432.39 504.37 423.21 505.00 419.00 C 505.63 414.79 504.53 407.49 505.00 403.00 C 501.54 403.14 499.25 406.46 496.00 407.00 C 496.64 413.37 496.99 422.73 490.30 425.30 C 483.62 427.88 475.98 429.82 469.00 429.00 C 462.02 428.19 455.47 426.80 450.26 422.74 C 445.04 418.69 453.50 406.25 443.77 405.23 C 434.04 404.20 434.75 397.80 441.69 395.69 C 448.64 393.59 452.28 389.73 458.23 387.23 C 464.18 384.72 469.96 379.94 476.07 382.93 C 482.18 385.91 486.87 388.50 492.69 391.31 C 498.52 394.11 504.44 395.55 509.00 400.00 M 393.00 480.00  C 395.38 486.45 395.36 501.62 393.00 508.00 C 389.84 516.57 377.04 514.21 370.00 514.00 C 362.96 513.79 347.59 516.91 345.70 508.30 C 343.80 499.70 343.33 488.73 345.00 480.00 C 346.67 471.27 362.31 474.20 369.00 474.00 C 375.69 473.80 390.02 471.92 393.00 480.00 Z" data-index="2"/>
</g>
<g fill="None" fill-opacity="0.0" stroke="#275962" stroke-opacity="1.00" stroke-width="0.3"><path d=" M 616.00 314.00  C 617.32 315.64 621.45 316.14 623.00 319.00 C 622.77 318.35 621.66 314.52 622.00 315.00 C 620.50 314.13 618.61 312.87 617.00 312.00 C 617.10 312.29 616.23 313.87 616.00 314.00 Z" data-index="3"/>
</g>
<g fill="None" fill-opacity="0.0" stroke="#0C9292" stroke-opacity="1.00" stroke-width="0.3"><path d=" M 600.00 320.00  C 596.08 321.81 592.27 324.46 588.00 326.00 C 578.49 329.42 569.61 334.92 560.00 338.00 C 553.38 341.27 547.08 345.45 540.00 348.00 C 528.03 352.82 515.60 357.88 505.00 365.00 C 518.09 369.56 524.82 377.76 538.31 382.69 C 551.79 387.63 541.84 406.35 536.99 416.99 C 532.14 427.63 526.06 438.82 518.30 448.30 C 510.55 457.79 501.66 465.65 491.70 472.70 C 481.74 479.74 469.88 485.38 459.25 491.25 C 448.61 497.11 437.22 503.07 426.23 508.23 C 415.24 513.39 404.58 520.64 395.23 528.23 C 385.88 535.82 377.33 544.49 369.75 553.75 C 362.17 563.01 355.45 573.93 351.00 585.00 C 349.16 589.58 346.71 594.65 345.00 599.00 C 341.17 612.73 339.19 627.48 335.00 641.00 C 335.47 653.90 353.13 663.12 360.75 673.25 C 368.37 683.38 384.66 690.23 394.00 698.00 C 394.01 655.34 409.13 606.87 438.75 575.75 C 468.37 544.63 509.02 536.97 542.75 512.75 C 576.48 488.54 604.30 453.24 610.00 412.00 C 627.99 419.59 645.13 429.96 663.00 438.00 C 650.69 398.02 636.19 358.70 623.00 319.00 C 621.45 316.14 617.32 315.64 616.00 314.00 C 611.69 316.47 604.78 318.41 600.00 320.00 Z" data-index="4"/>
</g>
<g fill="None" fill-opacity="0.0" stroke="#0A1E33" stroke-opacity="1.00" stroke-width="0.3"><path d=" M 623.00 319.00  C 636.19 358.70 650.69 398.02 663.00 438.00 C 645.13 429.96 627.99 419.59 610.00 412.00 C 604.30 453.24 576.48 488.54 542.75 512.75 C 509.02 536.97 468.37 544.63 438.75 575.75 C 409.13 606.87 394.01 655.34 394.00 698.00 C 394.00 698.50 393.85 699.55 394.00 700.00 C 398.42 702.41 403.38 705.56 408.00 708.00 C 407.42 701.69 408.33 694.54 409.00 689.00 C 409.15 681.50 411.09 674.29 413.00 668.00 C 413.75 662.87 414.67 657.98 416.00 653.00 C 420.03 608.64 458.59 565.70 501.68 549.68 C 544.77 533.66 582.40 503.06 607.00 463.00 C 607.76 461.35 608.27 459.57 609.00 458.00 C 611.28 448.28 614.45 443.71 615.00 433.00 C 615.55 422.29 624.85 424.05 631.75 429.25 C 638.64 434.46 645.05 435.77 652.08 439.92 C 659.12 444.07 665.45 447.63 673.00 450.00 C 660.72 409.31 643.12 369.61 633.00 328.00 C 633.05 327.51 633.00 327.00 633.00 327.00 C 633.09 326.06 634.29 325.98 635.00 326.00 C 640.15 326.12 647.10 335.34 650.90 338.10 C 654.70 340.86 663.56 347.54 665.00 352.00 C 665.40 352.20 666.00 352.00 666.00 352.00 C 671.12 354.51 676.51 361.06 680.00 363.00 C 679.03 361.82 678.17 359.48 677.00 358.00 C 672.03 352.63 666.14 347.14 661.00 342.00 C 648.77 331.55 635.60 322.83 622.00 315.00 C 621.66 314.52 622.77 318.35 623.00 319.00 Z" data-index="5"/>
</g>
<g fill="None" fill-opacity="0.0" stroke="#064E5A" stroke-opacity="1.00" stroke-width="0.3"><path d=" M 588.00 326.00  C 592.27 324.46 596.08 321.81 600.00 320.00 C 595.46 321.51 591.90 324.01 588.00 326.00 Z" data-index="6"/>
</g>
<g fill="None" fill-opacity="0.0" stroke="#583C24" stroke-opacity="1.00" stroke-width="0.3"><path d=" M 633.00 327.00  C 637.13 327.44 643.77 334.24 647.00 337.00 C 649.58 339.21 652.14 342.26 655.00 344.00 C 652.00 341.20 649.10 336.34 645.25 334.75 C 641.41 333.15 638.62 326.93 635.00 326.00 C 634.29 325.98 633.09 326.06 633.00 327.00 Z" data-index="7"/>
</g>
<g fill="None" fill-opacity="0.0" stroke="#14090A" stroke-opacity="1.00" stroke-width="0.3"><path d=" M 655.00 344.00  C 655.64 344.39 656.39 344.63 657.00 345.00 C 660.01 346.83 661.89 350.48 665.00 352.00 C 663.56 347.54 654.70 340.86 650.90 338.10 C 647.10 335.34 640.15 326.12 635.00 326.00 C 638.62 326.93 641.41 333.15 645.25 334.75 C 649.10 336.34 652.00 341.20 655.00 344.00 Z" data-index="8"/>
</g>
<g fill="None" fill-opacity="0.0" stroke="#E08725" stroke-opacity="1.00" stroke-width="0.3"><path d=" M 633.00 328.00  C 638.64 332.31 637.33 345.18 641.32 351.68 C 645.31 358.18 646.00 368.34 649.32 375.68 C 652.65 383.01 655.33 391.31 657.78 399.22 C 660.22 407.14 663.53 415.98 666.00 424.00 C 667.53 427.59 668.92 430.96 670.00 435.00 C 671.18 439.40 673.17 443.46 674.00 448.00 C 674.56 449.66 676.60 451.67 676.00 454.00 C 672.89 452.98 668.91 451.85 667.00 449.00 C 650.75 441.99 635.65 432.17 619.00 426.00 C 616.10 436.71 614.57 448.51 609.00 458.00 C 608.27 459.57 607.76 461.35 607.00 463.00 C 600.75 476.50 592.82 488.51 583.00 500.00 C 578.88 504.83 574.15 510.33 569.00 514.00 C 541.77 533.45 512.99 546.82 483.00 561.00 C 479.72 563.11 476.53 565.90 473.00 568.00 C 468.73 570.53 464.79 573.76 461.00 577.00 C 453.20 584.80 444.17 593.36 438.00 602.00 C 428.70 618.52 420.92 634.59 416.00 653.00 C 414.67 657.98 413.75 662.87 413.00 668.00 C 411.09 681.11 409.39 694.25 410.00 708.00 C 430.87 718.90 454.12 726.01 477.00 730.00 C 477.99 729.92 479.01 730.07 480.00 730.00 C 479.23 716.88 481.51 704.57 483.00 692.00 C 483.79 686.62 485.21 681.74 487.00 677.00 C 488.16 672.25 490.07 667.48 492.00 663.00 C 494.99 656.06 498.94 649.98 503.00 644.00 C 510.10 630.11 521.70 616.58 535.00 608.00 C 541.57 602.60 547.75 598.44 555.00 594.00 C 560.63 589.73 567.01 586.67 573.00 583.00 C 575.18 582.74 572.06 579.89 570.92 581.93 C 569.78 583.97 567.68 582.99 567.00 583.00 C 560.24 583.07 551.94 577.76 545.99 577.01 C 540.04 576.26 530.53 588.63 529.01 578.99 C 527.49 569.35 530.26 560.29 529.00 551.00 C 527.74 541.71 535.60 540.57 541.69 536.70 C 547.79 532.82 556.32 536.88 561.70 540.31 C 567.07 543.73 576.97 531.14 581.67 534.33 C 586.38 537.52 597.35 538.40 598.75 544.25 C 600.15 550.10 600.84 566.10 599.00 572.00 C 603.13 565.94 615.19 561.77 621.00 557.00 C 624.25 554.33 627.67 550.84 631.00 548.00 C 636.59 542.41 642.46 536.54 648.00 531.00 C 649.46 529.29 651.68 527.61 653.00 526.00 C 653.95 524.53 654.86 522.57 656.00 521.00 C 658.70 517.30 661.65 513.61 664.00 510.00 C 666.49 505.99 668.80 501.26 672.00 498.00 C 672.10 497.52 672.00 497.00 672.00 497.00 C 676.77 485.42 682.05 475.32 684.93 462.93 C 687.80 450.53 692.30 436.27 691.93 422.93 C 691.55 409.59 694.24 389.71 690.00 377.00 C 688.76 373.94 681.55 369.18 679.00 367.00 C 674.01 362.74 669.74 357.35 665.00 353.00 C 664.06 352.29 662.90 351.68 662.00 351.00 C 656.45 346.80 651.88 341.88 647.00 337.00 C 643.77 334.24 637.13 327.44 633.00 327.00 C 633.00 327.00 633.05 327.51 633.00 328.00 Z" data-index="9"/>
</g>
<g fill="None" fill-opacity="0.0" stroke="#2C1E15" stroke-opacity="1.00" stroke-width="0.3"><path d=" M 609.00 458.00  C 614.57 448.51 616.10 436.71 619.00 426.00 C 635.65 432.17 650.75 441.99 667.00 449.00 C 669.76 450.19 672.26 451.78 675.00 453.00 C 675.05 451.24 673.47 449.93 674.00 448.00 C 673.17 443.46 671.18 439.40 670.00 435.00 C 668.74 431.58 667.16 427.76 666.00 424.00 C 663.53 415.98 660.22 407.14 657.78 399.22 C 655.33 391.31 652.65 383.01 649.32 375.68 C 646.00 368.34 645.31 358.18 641.32 351.68 C 637.33 345.18 638.64 332.31 633.00 328.00 C 643.12 369.61 660.72 409.31 673.00 450.00 C 665.45 447.63 659.12 444.07 652.08 439.92 C 645.05 435.77 638.64 434.46 631.75 429.25 C 624.85 424.05 615.55 422.29 615.00 433.00 C 614.45 443.71 611.28 448.28 609.00 458.00 Z" data-index="10"/>
</g>
<g fill="None" fill-opacity="0.0" stroke="#A67849" stroke-opacity="1.00" stroke-width="0.3"><path d=" M 662.00 351.00  C 660.19 349.34 658.74 346.62 657.00 345.00 C 656.39 344.63 655.64 344.39 655.00 344.00 C 652.14 342.26 649.58 339.21 647.00 337.00 C 651.88 341.88 656.45 346.80 662.00 351.00 Z" data-index="11"/>
</g>
<g fill="None" fill-opacity="0.0" stroke="#074D59" stroke-opacity="1.00" stroke-width="0.3"><path d=" M 540.00 348.00  C 547.08 345.45 553.38 341.27 560.00 338.00 C 552.83 340.30 546.44 344.71 540.00 348.00 Z" data-index="12"/>
</g>
<g fill="None" fill-opacity="0.0" stroke="#7A8386" stroke-opacity="1.00" stroke-width="0.3"><path d=" M 677.00 358.00  C 672.47 352.26 666.60 346.78 661.00 342.00 C 666.14 347.14 672.03 352.63 677.00 358.00 Z" data-index="13"/>
</g>
<g fill="None" fill-opacity="0.0" stroke="#4B2F15" stroke-opacity="1.00" stroke-width="0.3"><path d=" M 662.00 351.00  C 662.90 351.68 664.06 352.29 665.00 353.00 C 670.25 356.97 674.44 362.44 679.00 367.00 C 681.55 369.18 688.76 373.94 690.00 377.00 C 688.31 371.92 681.44 369.14 678.25 364.75 C 675.06 360.37 669.14 356.50 666.00 352.00 C 666.00 352.00 665.40 352.20 665.00 352.00 C 661.89 350.48 660.01 346.83 657.00 345.00 C 658.74 346.62 660.19 349.34 662.00 351.00 Z" data-index="14"/>
</g>
<g fill="None" fill-opacity="0.0" stroke="#281C15" stroke-opacity="1.00" stroke-width="0.3"><path d=" M 690.00 377.00  C 694.24 389.71 691.55 409.59 691.93 422.93 C 692.30 436.27 687.80 450.53 684.93 462.93 C 682.05 475.32 676.77 485.42 672.00 497.00 C 681.64 490.72 682.02 475.67 685.98 464.98 C 689.93 454.28 691.95 438.82 693.00 426.00 C 694.05 413.18 692.98 393.96 692.00 381.00 C 693.66 381.54 694.33 383.56 696.00 384.00 C 690.79 377.20 685.60 369.82 680.00 363.00 C 676.51 361.06 671.12 354.51 666.00 352.00 C 669.14 356.50 675.06 360.37 678.25 364.75 C 681.44 369.14 688.31 371.92 690.00 377.00 Z" data-index="15"/>
</g>
<g fill="None" fill-opacity="0.0" stroke="#8C6237" stroke-opacity="1.00" stroke-width="0.3"><path d=" M 679.00 367.00  C 674.44 362.44 670.25 356.97 665.00 353.00 C 669.74 357.35 674.01 362.74 679.00 367.00 Z" data-index="16"/>
</g>
<g fill="None" fill-opacity="0.0" stroke="#0B1A36" stroke-opacity="1.00" stroke-width="0.3"><path d=" M 672.00 497.00  C 672.00 497.00 672.10 497.52 672.00 498.00 C 670.99 502.62 666.44 507.26 664.00 511.00 C 663.63 512.02 663.36 513.00 663.00 514.00 C 659.40 523.92 647.30 532.83 641.25 541.25 C 635.20 549.67 634.01 548.45 628.25 553.25 C 622.49 558.05 619.18 561.66 613.92 563.92 C 608.66 566.18 604.10 574.99 599.00 574.00 C 599.00 577.33 599.00 580.67 599.00 584.00 C 594.39 583.18 590.44 580.43 586.00 579.00 C 576.77 579.03 567.30 590.43 558.30 593.30 C 549.30 596.18 542.31 606.91 534.23 611.23 C 526.15 615.56 519.77 626.08 512.75 631.75 C 505.73 637.43 503.58 654.10 496.00 657.00 C 495.83 657.43 496.00 658.00 496.00 658.00 C 494.37 664.96 491.31 669.10 489.22 676.22 C 487.14 683.34 485.82 688.07 484.07 696.07 C 482.33 704.08 484.37 710.58 483.00 720.00 C 481.63 729.42 488.72 730.07 496.00 733.00 C 517.84 735.11 546.09 732.32 566.33 726.33 C 586.56 720.33 604.06 713.83 621.25 703.25 C 638.45 692.68 651.58 682.98 666.25 669.25 C 680.91 655.51 690.29 642.77 701.23 626.23 C 712.17 609.69 719.29 591.83 725.22 572.22 C 731.16 552.62 735.32 523.54 734.00 502.00 C 732.68 480.46 730.81 454.00 722.31 435.69 C 713.80 417.39 711.52 397.04 696.00 384.00 C 694.33 383.56 693.66 381.54 692.00 381.00 C 692.98 393.96 694.05 413.18 693.00 426.00 C 691.95 438.82 689.93 454.28 685.98 464.98 C 682.02 475.67 681.64 490.72 672.00 497.00 M 574.00 636.00  C 575.88 638.69 572.59 644.99 574.00 648.00 C 571.12 648.81 569.85 646.10 569.00 644.00 C 563.72 650.20 558.60 651.48 553.75 658.75 C 548.91 666.03 542.00 664.74 537.00 657.00 C 533.50 659.44 529.79 663.95 526.75 666.75 C 523.71 669.55 517.67 678.10 517.00 670.00 C 517.35 667.11 524.21 662.29 526.25 660.25 C 528.28 658.21 533.17 651.31 536.00 651.00 C 539.84 650.58 543.70 656.67 546.00 659.00 C 552.88 654.87 557.93 646.75 564.00 641.00 C 562.09 639.98 556.37 639.53 560.00 636.00 C 561.69 634.31 572.54 633.91 574.00 636.00 M 560.00 690.00  C 555.97 685.97 560.85 676.43 559.00 671.00 C 557.15 665.57 563.30 660.89 567.00 658.00 C 567.20 657.68 567.70 657.22 568.00 657.00 C 570.35 655.30 569.72 665.29 570.00 669.00 C 570.28 672.71 568.85 680.17 570.00 685.00 C 571.15 689.83 564.20 694.20 560.00 690.00 M 550.00 674.00  C 553.36 679.42 550.24 699.24 541.00 690.00 C 538.59 687.59 539.50 676.58 541.00 674.00 C 543.06 670.45 547.89 670.59 550.00 674.00 M 522.00 690.00  C 519.01 687.01 522.17 679.93 521.00 676.00 C 524.00 676.00 527.00 676.00 530.00 676.00 C 536.82 679.37 530.54 698.54 522.00 690.00 M 573.00 694.00  C 578.37 699.37 562.25 699.88 558.00 699.00 C 553.75 698.12 540.38 699.81 536.00 699.00 C 531.62 698.19 515.45 701.96 517.00 695.00 C 517.88 690.90 529.70 693.15 534.00 693.00 C 538.30 692.85 549.24 692.37 554.00 693.00 C 558.76 693.63 569.71 690.71 573.00 694.00 Z" data-index="17"/>
</g>
<g fill="None" fill-opacity="0.0" stroke="#DDE1E5" stroke-opacity="1.00" stroke-width="0.3"><path d=" M 509.00 427.00  C 510.10 424.40 509.00 418.87 509.00 416.00 C 509.00 411.69 510.54 403.97 509.00 400.00 C 504.44 395.55 498.52 394.11 492.69 391.31 C 486.87 388.50 482.18 385.91 476.07 382.93 C 469.96 379.94 464.18 384.72 458.23 387.23 C 452.28 389.73 448.64 393.59 441.69 395.69 C 434.75 397.80 434.04 404.20 443.77 405.23 C 453.50 406.25 445.04 418.69 450.26 422.74 C 455.47 426.80 462.02 428.19 469.00 429.00 C 475.98 429.82 483.62 427.88 490.30 425.30 C 496.99 422.73 496.64 413.37 496.00 407.00 C 499.25 406.46 501.54 403.14 505.00 403.00 C 504.53 407.49 505.63 414.79 505.00 419.00 C 504.37 423.21 505.41 432.39 509.00 427.00 M 499.00 401.00  C 489.77 401.82 481.24 413.03 471.98 412.98 C 462.71 412.92 454.21 402.12 445.00 401.00 C 451.74 397.27 462.83 386.66 472.01 387.01 C 481.19 387.35 492.52 396.90 499.00 401.00 M 491.00 410.00  C 491.00 413.33 491.00 416.67 491.00 420.00 C 479.49 425.69 465.25 426.72 454.00 420.00 C 454.00 417.00 454.00 414.00 454.00 411.00 C 466.38 418.34 478.92 417.06 491.00 410.00 Z" data-index="18"/>
</g>
<g fill="None" fill-opacity="0.0" stroke="#0E1C34" stroke-opacity="1.00" stroke-width="0.3"><path d=" M 499.00 401.00  C 492.52 396.90 481.19 387.35 472.01 387.01 C 462.83 386.66 451.74 397.27 445.00 401.00 C 454.21 402.12 462.71 412.92 471.98 412.98 C 481.24 413.03 489.77 401.82 499.00 401.00 Z" data-index="19"/>
</g>
<g fill="None" fill-opacity="0.0" stroke="#555D67" stroke-opacity="1.00" stroke-width="0.3"><path d=" M 509.00 416.00  C 509.00 415.96 510.00 416.00 510.00 416.00 C 510.00 411.26 511.24 403.85 509.00 400.00 C 510.54 403.97 509.00 411.69 509.00 416.00 Z" data-index="20"/>
</g>
<g fill="None" fill-opacity="0.0" stroke="#0F1B2E" stroke-opacity="1.00" stroke-width="0.3"><path d=" M 491.00 410.00  C 478.92 417.06 466.38 418.34 454.00 411.00 C 454.00 414.00 454.00 417.00 454.00 420.00 C 465.25 426.72 479.49 425.69 491.00 420.00 C 491.00 416.67 491.00 413.33 491.00 410.00 Z" data-index="21"/>
</g>
<g fill="None" fill-opacity="0.0" stroke="#767E8A" stroke-opacity="1.00" stroke-width="0.3"><path d=" M 509.00 427.00  C 510.80 424.30 510.00 419.52 510.00 416.00 C 510.00 416.00 509.00 415.96 509.00 416.00 C 509.00 418.87 510.10 424.40 509.00 427.00 Z" data-index="22"/>
</g>
<g fill="None" fill-opacity="0.0" stroke="#92683A" stroke-opacity="1.00" stroke-width="0.3"><path d=" M 670.00 435.00  C 668.92 430.96 667.53 427.59 666.00 424.00 C 667.16 427.76 668.74 431.58 670.00 435.00 Z" data-index="23"/>
</g>
<g fill="None" fill-opacity="0.0" stroke="#714B21" stroke-opacity="1.00" stroke-width="0.3"><path d=" M 667.00 449.00  C 668.91 451.85 672.89 452.98 676.00 454.00 C 676.60 451.67 674.56 449.66 674.00 448.00 C 673.47 449.93 675.05 451.24 675.00 453.00 C 672.26 451.78 669.76 450.19 667.00 449.00 Z" data-index="24"/>
</g>
<g fill="None" fill-opacity="0.0" stroke="#241911" stroke-opacity="1.00" stroke-width="0.3"><path d=" M 416.00 653.00  C 420.92 634.59 428.70 618.52 438.00 602.00 C 443.27 592.65 452.78 584.03 461.00 577.00 C 464.79 573.76 468.73 570.53 473.00 568.00 C 476.34 565.52 479.05 562.87 483.00 561.00 C 512.99 546.82 541.77 533.45 569.00 514.00 C 573.75 510.02 578.63 504.37 583.00 500.00 C 592.82 488.51 600.75 476.50 607.00 463.00 C 582.40 503.06 544.77 533.66 501.68 549.68 C 458.59 565.70 420.03 608.64 416.00 653.00 Z" data-index="25"/>
</g>
<g fill="None" fill-opacity="0.0" stroke="#E4E6EA" stroke-opacity="1.00" stroke-width="0.3"><path d=" M 393.00 508.00  C 394.54 501.05 394.54 486.95 393.00 480.00 C 390.02 471.92 375.69 473.80 369.00 474.00 C 362.31 474.20 346.67 471.27 345.00 480.00 C 343.33 488.73 343.80 499.70 345.70 508.30 C 347.59 516.91 362.96 513.79 370.00 514.00 C 377.04 514.21 389.84 516.57 393.00 508.00 M 352.00 509.00  C 346.94 507.16 347.47 484.51 350.00 481.00 C 355.47 473.42 365.83 482.54 375.00 479.00 C 384.17 475.46 390.56 483.00 389.00 492.00 C 387.44 501.00 390.82 511.73 379.00 509.00 C 367.18 506.27 362.47 512.82 352.00 509.00 Z" data-index="26"/>
</g>
<g fill="None" fill-opacity="0.0" stroke="#0A182F" stroke-opacity="1.00" stroke-width="0.3"><path d=" M 350.00 481.00  C 348.44 484.16 350.44 492.64 350.00 496.00 C 349.56 499.36 348.73 507.31 352.00 509.00 C 362.47 512.82 367.18 506.27 379.00 509.00 C 390.82 511.73 387.44 501.00 389.00 492.00 C 390.56 483.00 384.17 475.46 375.00 479.00 C 365.83 482.54 355.47 473.42 350.00 481.00 M 385.00 482.00  C 388.00 483.73 384.97 492.37 386.00 495.00 C 387.03 497.63 386.08 506.93 382.30 505.64 C 378.53 504.35 382.05 495.38 381.00 493.00 C 379.95 490.62 380.48 479.40 385.00 482.00 Z" data-index="27"/>
</g>
<g fill="None" fill-opacity="0.0" stroke="#828A95" stroke-opacity="1.00" stroke-width="0.3"><path d=" M 393.00 508.00  C 395.36 501.62 395.38 486.45 393.00 480.00 C 394.54 486.95 394.54 501.05 393.00 508.00 Z" data-index="28"/>
</g>
<g fill="None" fill-opacity="0.0" stroke="#80868E" stroke-opacity="1.00" stroke-width="0.3"><path d=" M 352.00 509.00  C 348.73 507.31 349.56 499.36 350.00 496.00 C 350.44 492.64 348.44 484.16 350.00 481.00 C 347.47 484.51 346.94 507.16 352.00 509.00 Z" data-index="29"/>
</g>
<g fill="None" fill-opacity="0.0" stroke="#D3D8DC" stroke-opacity="1.00" stroke-width="0.3"><path d=" M 385.00 482.00  C 380.48 479.40 379.95 490.62 381.00 493.00 C 382.05 495.38 378.53 504.35 382.30 505.64 C 386.08 506.93 387.03 497.63 386.00 495.00 C 384.97 492.37 388.00 483.73 385.00 482.00 Z" data-index="30"/>
</g>
<g fill="None" fill-opacity="0.0" stroke="#7D848C" stroke-opacity="1.00" stroke-width="0.3"><path d=" M 288.00 520.00  C 288.00 512.00 288.00 504.00 288.00 496.00 C 287.28 503.48 287.27 512.45 288.00 520.00 Z" data-index="31"/>
</g>
<g fill="None" fill-opacity="0.0" stroke="#2F2016" stroke-opacity="1.00" stroke-width="0.3"><path d=" M 664.00 510.00  C 663.78 510.36 664.00 511.00 664.00 511.00 C 666.44 507.26 670.99 502.62 672.00 498.00 C 668.80 501.26 666.49 505.99 664.00 510.00 Z" data-index="32"/>
</g>
<g fill="None" fill-opacity="0.0" stroke="#7E5931" stroke-opacity="1.00" stroke-width="0.3"><path d=" M 569.00 514.00  C 574.15 510.33 578.88 504.83 583.00 500.00 C 578.63 504.37 573.75 510.02 569.00 514.00 Z" data-index="33"/>
</g>
<g fill="None" fill-opacity="0.0" stroke="#593C1D" stroke-opacity="1.00" stroke-width="0.3"><path d=" M 656.00 521.00  C 658.07 518.76 661.48 516.50 663.00 514.00 C 663.36 513.00 663.63 512.02 664.00 511.00 C 664.00 511.00 663.78 510.36 664.00 510.00 C 661.65 513.61 658.70 517.30 656.00 521.00 Z" data-index="34"/>
</g>
<g fill="None" fill-opacity="0.0" stroke="#211914" stroke-opacity="1.00" stroke-width="0.3"><path d=" M 656.00 521.00  C 654.86 522.57 653.95 524.53 653.00 526.00 C 645.54 537.56 632.18 549.79 621.00 557.00 C 615.19 561.77 603.13 565.94 599.00 572.00 C 598.77 572.34 599.00 573.50 599.00 574.00 C 604.10 574.99 608.66 566.18 613.92 563.92 C 619.18 561.66 622.49 558.05 628.25 553.25 C 634.01 548.45 635.20 549.67 641.25 541.25 C 647.30 532.83 659.40 523.92 663.00 514.00 C 661.48 516.50 658.07 518.76 656.00 521.00 Z" data-index="35"/>
</g>
<g fill="None" fill-opacity="0.0" stroke="#51381F" stroke-opacity="1.00" stroke-width="0.3"><path d=" M 648.00 531.00  C 642.86 537.01 636.96 542.91 631.00 548.00 C 627.67 550.84 624.25 554.33 621.00 557.00 C 632.18 549.79 645.54 537.56 653.00 526.00 C 651.68 527.61 649.46 529.29 648.00 531.00 Z" data-index="36"/>
</g>
<g fill="None" fill-opacity="0.0" stroke="#AF814E" stroke-opacity="1.00" stroke-width="0.3"><path d=" M 631.00 548.00  C 636.96 542.91 642.86 537.01 648.00 531.00 C 642.46 536.54 636.59 542.41 631.00 548.00 Z" data-index="37"/>
</g>
<g fill="None" fill-opacity="0.0" stroke="#F7E8CE" stroke-opacity="1.00" stroke-width="0.3"><path d=" M 567.00 583.00  C 572.89 581.78 574.79 576.50 582.00 577.00 C 582.50 577.03 583.50 577.03 584.00 577.00 C 589.86 576.59 592.21 580.53 597.00 580.00 C 595.96 577.47 595.09 572.32 599.00 572.00 C 600.84 566.10 600.15 550.10 598.75 544.25 C 597.35 538.40 586.38 537.52 581.67 534.33 C 576.97 531.14 567.07 543.73 561.70 540.31 C 556.32 536.88 547.79 532.82 541.69 536.70 C 535.60 540.57 527.74 541.71 529.00 551.00 C 530.26 560.29 527.49 569.35 529.01 578.99 C 530.53 588.63 540.04 576.26 545.99 577.01 C 551.94 577.76 560.24 583.07 567.00 583.00 M 562.00 577.00  C 552.92 571.46 543.20 569.31 534.00 576.00 C 535.95 567.94 530.41 551.29 536.25 545.25 C 542.09 539.21 554.38 538.68 560.22 544.78 C 566.06 550.88 559.54 568.96 562.00 577.00 M 594.00 545.00  C 594.00 555.33 594.00 565.67 594.00 576.00 C 584.49 572.02 576.31 570.27 567.00 576.00 C 568.96 565.76 563.19 552.64 569.70 544.70 C 576.21 536.76 586.39 542.29 594.00 545.00 Z" data-index="38"/>
</g>
<g fill="None" fill-opacity="0.0" stroke="#DD882C" stroke-opacity="1.00" stroke-width="0.3"><path d=" M 562.00 577.00  C 559.54 568.96 566.06 550.88 560.22 544.78 C 554.38 538.68 542.09 539.21 536.25 545.25 C 530.41 551.29 535.95 567.94 534.00 576.00 C 543.20 569.31 552.92 571.46 562.00 577.00 Z" data-index="39"/>
</g>
<g fill="None" fill-opacity="0.0" stroke="#DD882B" stroke-opacity="1.00" stroke-width="0.3"><path d=" M 594.00 545.00  C 586.39 542.29 576.21 536.76 569.70 544.70 C 563.19 552.64 568.96 565.76 567.00 576.00 C 576.31 570.27 584.49 572.02 594.00 576.00 C 594.00 565.67 594.00 555.33 594.00 545.00 Z" data-index="40"/>
</g>
<g fill="None" fill-opacity="0.0" stroke="#684928" stroke-opacity="1.00" stroke-width="0.3"><path d=" M 473.00 568.00  C 476.53 565.90 479.72 563.11 483.00 561.00 C 479.05 562.87 476.34 565.52 473.00 568.00 Z" data-index="41"/>
</g>
<g fill="None" fill-opacity="0.0" stroke="#DADBDF" stroke-opacity="1.00" stroke-width="0.3"><path d=" M 584.00 577.00  C 584.58 577.16 585.50 578.68 586.00 579.00 C 590.44 580.43 594.39 583.18 599.00 584.00 C 599.00 580.67 599.00 577.33 599.00 574.00 C 599.00 573.50 598.77 572.34 599.00 572.00 C 595.09 572.32 595.96 577.47 597.00 580.00 C 592.21 580.53 589.86 576.59 584.00 577.00 Z" data-index="42"/>
</g>
<g fill="None" fill-opacity="0.0" stroke="#61401E" stroke-opacity="1.00" stroke-width="0.3"><path d=" M 438.00 602.00  C 444.17 593.36 453.20 584.80 461.00 577.00 C 452.78 584.03 443.27 592.65 438.00 602.00 Z" data-index="43"/>
</g>
<g fill="None" fill-opacity="0.0" stroke="#B0824B" stroke-opacity="1.00" stroke-width="0.3"><path d=" M 567.00 583.00  C 567.68 582.99 569.78 583.97 570.92 581.93 C 572.06 579.89 575.18 582.74 573.00 583.00 C 576.04 581.13 579.18 578.73 582.00 577.00 C 574.79 576.50 572.89 581.78 567.00 583.00 Z" data-index="44"/>
</g>
<g fill="None" fill-opacity="0.0" stroke="#201715" stroke-opacity="1.00" stroke-width="0.3"><path d=" M 573.00 583.00  C 567.01 586.67 560.63 589.73 555.00 594.00 C 548.75 598.74 541.79 603.62 535.00 608.00 C 521.70 616.58 510.10 630.11 503.00 644.00 C 500.75 648.40 497.82 652.37 496.00 657.00 C 503.58 654.10 505.73 637.43 512.75 631.75 C 519.77 626.08 526.15 615.56 534.23 611.23 C 542.31 606.91 549.30 596.18 558.30 593.30 C 567.30 590.43 576.77 579.03 586.00 579.00 C 585.50 578.68 584.58 577.16 584.00 577.00 C 583.50 577.03 582.50 577.03 582.00 577.00 C 579.18 578.73 576.04 581.13 573.00 583.00 Z" data-index="45"/>
</g>
<g fill="None" fill-opacity="0.0" stroke="#0C4C5B" stroke-opacity="1.00" stroke-width="0.3"><path d=" M 345.00 599.00  C 346.71 594.65 349.16 589.58 351.00 585.00 C 348.47 589.21 346.41 593.94 345.00 599.00 Z" data-index="46"/>
</g>
<g fill="None" fill-opacity="0.0" stroke="#4D3214" stroke-opacity="1.00" stroke-width="0.3"><path d=" M 535.00 608.00  C 541.79 603.62 548.75 598.74 555.00 594.00 C 547.75 598.44 541.57 602.60 535.00 608.00 Z" data-index="47"/>
</g>
<g fill="None" fill-opacity="0.0" stroke="#747A86" stroke-opacity="1.00" stroke-width="0.3"><path d=" M 560.00 636.00  C 563.33 633.89 570.33 637.58 574.00 636.00 C 572.54 633.91 561.69 634.31 560.00 636.00 Z" data-index="48"/>
</g>
<g fill="None" fill-opacity="0.0" stroke="#E5E9EC" stroke-opacity="1.00" stroke-width="0.3"><path d=" M 536.00 651.00  C 534.45 654.76 528.42 657.30 526.75 660.75 C 525.09 664.20 517.65 666.82 517.00 670.00 C 517.67 678.10 523.71 669.55 526.75 666.75 C 529.79 663.95 533.50 659.44 537.00 657.00 C 542.00 664.74 548.91 666.03 553.75 658.75 C 558.60 651.48 563.72 650.20 569.00 644.00 C 569.85 646.10 571.12 648.81 574.00 648.00 C 572.59 644.99 575.88 638.69 574.00 636.00 C 570.33 637.58 563.33 633.89 560.00 636.00 C 556.37 639.53 562.09 639.98 564.00 641.00 C 557.93 646.75 552.88 654.87 546.00 659.00 C 543.70 656.67 539.84 650.58 536.00 651.00 Z" data-index="49"/>
</g>
<g fill="None" fill-opacity="0.0" stroke="#224C52" stroke-opacity="1.00" stroke-width="0.3"><path d=" M 333.00 644.00  C 349.58 666.29 369.72 686.76 394.00 700.00 C 393.85 699.55 394.00 698.50 394.00 698.00 C 384.66 690.23 368.37 683.38 360.75 673.25 C 353.13 663.12 335.47 653.90 335.00 641.00 C 334.84 641.53 333.04 643.45 333.00 644.00 Z" data-index="50"/>
</g>
<g fill="None" fill-opacity="0.0" stroke="#573C21" stroke-opacity="1.00" stroke-width="0.3"><path d=" M 492.00 663.00  C 492.80 661.54 494.94 659.32 496.00 658.00 C 496.00 658.00 495.83 657.43 496.00 657.00 C 497.82 652.37 500.75 648.40 503.00 644.00 C 498.94 649.98 494.99 656.06 492.00 663.00 Z" data-index="51"/>
</g>
<g fill="None" fill-opacity="0.0" stroke="#757D86" stroke-opacity="1.00" stroke-width="0.3"><path d=" M 517.00 670.00  C 517.65 666.82 525.09 664.20 526.75 660.75 C 528.42 657.30 534.45 654.76 536.00 651.00 C 533.17 651.31 528.28 658.21 526.25 660.25 C 524.21 662.29 517.35 667.11 517.00 670.00 Z" data-index="52"/>
</g>
<g fill="None" fill-opacity="0.0" stroke="#80878F" stroke-opacity="1.00" stroke-width="0.3"><path d=" M 568.00 657.00  C 571.50 658.96 567.93 668.95 569.00 673.00 C 570.07 677.05 568.20 685.54 569.00 690.00 C 566.00 690.00 563.00 690.00 560.00 690.00 C 564.20 694.20 571.15 689.83 570.00 685.00 C 568.85 680.17 570.28 672.71 570.00 669.00 C 569.72 665.29 570.35 655.30 568.00 657.00 Z" data-index="53"/>
</g>
<g fill="None" fill-opacity="0.0" stroke="#F9FBFB" stroke-opacity="1.00" stroke-width="0.3"><path d=" M 567.00 658.00  C 564.15 662.61 559.22 663.72 560.00 670.00 C 560.78 676.28 559.41 683.63 560.00 690.00 C 563.00 690.00 566.00 690.00 569.00 690.00 C 568.20 685.54 570.07 677.05 569.00 673.00 C 567.93 668.95 571.50 658.96 568.00 657.00 C 567.70 657.22 567.20 657.68 567.00 658.00 Z" data-index="54"/>
</g>
<g fill="None" fill-opacity="0.0" stroke="#1E1816" stroke-opacity="1.00" stroke-width="0.3"><path d=" M 492.00 663.00  C 490.07 667.48 488.16 672.25 487.00 677.00 C 485.79 681.96 484.17 687.41 483.00 692.00 C 481.51 704.57 479.23 716.88 480.00 730.00 C 479.01 730.07 477.99 729.92 477.00 730.00 C 476.65 730.03 476.22 730.96 476.00 731.00 C 482.71 731.98 489.17 732.34 496.00 733.00 C 488.72 730.07 481.63 729.42 483.00 720.00 C 484.37 710.58 482.33 704.08 484.07 696.07 C 485.82 688.07 487.14 683.34 489.22 676.22 C 491.31 669.10 494.37 664.96 496.00 658.00 C 494.94 659.32 492.80 661.54 492.00 663.00 Z" data-index="55"/>
</g>
<g fill="None" fill-opacity="0.0" stroke="#616771" stroke-opacity="1.00" stroke-width="0.3"><path d=" M 560.00 690.00  C 559.41 683.63 560.78 676.28 560.00 670.00 C 559.22 663.72 564.15 662.61 567.00 658.00 C 563.30 660.89 557.15 665.57 559.00 671.00 C 560.85 676.43 555.97 685.97 560.00 690.00 Z" data-index="56"/>
</g>
<g fill="None" fill-opacity="0.0" stroke="#4D331C" stroke-opacity="1.00" stroke-width="0.3"><path d=" M 409.00 689.00  C 408.88 695.18 409.92 702.65 408.00 708.00 C 429.62 719.42 451.39 727.41 476.00 731.00 C 476.22 730.96 476.65 730.03 477.00 730.00 C 454.12 726.01 430.87 718.90 410.00 708.00 C 409.39 694.25 411.09 681.11 413.00 668.00 C 411.09 674.29 409.15 681.50 409.00 689.00 Z" data-index="57"/>
</g>
<g fill="None" fill-opacity="0.0" stroke="#F0F3F5" stroke-opacity="1.00" stroke-width="0.3"><path d=" M 541.00 674.00  C 539.20 678.64 542.35 685.19 541.00 690.00 C 544.00 690.00 547.00 690.00 550.00 690.00 C 550.00 684.67 550.00 679.33 550.00 674.00 C 547.89 670.59 543.06 670.45 541.00 674.00 Z" data-index="58"/>
</g>
<g fill="None" fill-opacity="0.0" stroke="#9BA1AB" stroke-opacity="1.00" stroke-width="0.3"><path d=" M 541.00 690.00  C 542.35 685.19 539.20 678.64 541.00 674.00 C 539.50 676.58 538.59 687.59 541.00 690.00 Z" data-index="59"/>
</g>
<g fill="None" fill-opacity="0.0" stroke="#57606B" stroke-opacity="1.00" stroke-width="0.3"><path d=" M 541.00 690.00  C 550.24 699.24 553.36 679.42 550.00 674.00 C 550.00 679.33 550.00 684.67 550.00 690.00 C 547.00 690.00 544.00 690.00 541.00 690.00 Z" data-index="60"/>
</g>
<g fill="None" fill-opacity="0.0" stroke="#EDF0F2" stroke-opacity="1.00" stroke-width="0.3"><path d=" M 522.00 690.00  C 524.01 691.41 528.74 688.94 531.00 690.00 C 530.52 685.37 532.08 680.20 530.00 676.00 C 527.00 676.00 524.00 676.00 521.00 676.00 C 522.17 679.93 519.01 687.01 522.00 690.00 Z" data-index="61"/>
</g>
<g fill="None" fill-opacity="0.0" stroke="#5A626B" stroke-opacity="1.00" stroke-width="0.3"><path d=" M 522.00 690.00  C 530.54 698.54 536.82 679.37 530.00 676.00 C 532.08 680.20 530.52 685.37 531.00 690.00 C 528.74 688.94 524.01 691.41 522.00 690.00 Z" data-index="62"/>
</g>
<g fill="None" fill-opacity="0.0" stroke="#856038" stroke-opacity="1.00" stroke-width="0.3"><path d=" M 483.00 692.00  C 484.17 687.41 485.79 681.96 487.00 677.00 C 485.21 681.74 483.79 686.62 483.00 692.00 Z" data-index="63"/>
</g>
<g fill="None" fill-opacity="0.0" stroke="#160F16" stroke-opacity="1.00" stroke-width="0.3"><path d=" M 408.00 708.00  C 409.92 702.65 408.88 695.18 409.00 689.00 C 408.33 694.54 407.42 701.69 408.00 708.00 Z" data-index="64"/>
</g>
<g fill="None" fill-opacity="0.0" stroke="#505763" stroke-opacity="1.00" stroke-width="0.3"><path d=" M 517.00 695.00  C 517.02 694.89 518.00 695.00 518.00 695.00 C 524.33 690.31 536.92 695.68 545.00 694.00 C 553.08 692.32 564.60 695.26 573.00 694.00 C 569.71 690.71 558.76 693.63 554.00 693.00 C 549.24 692.37 538.30 692.85 534.00 693.00 C 529.70 693.15 517.88 690.90 517.00 695.00 Z" data-index="65"/>
</g>
<g fill="None" fill-opacity="0.0" stroke="#F8F9FC" stroke-opacity="1.00" stroke-width="0.3"><path d=" M 518.00 695.00  C 517.95 696.00 518.04 697.00 518.00 698.00 C 536.33 698.00 554.67 698.00 573.00 698.00 C 573.00 696.67 573.00 695.33 573.00 694.00 C 564.60 695.26 553.08 692.32 545.00 694.00 C 536.92 695.68 524.33 690.31 518.00 695.00 Z" data-index="66"/>
</g>
<g fill="None" fill-opacity="0.0" stroke="#8A909B" stroke-opacity="1.00" stroke-width="0.3"><path d=" M 518.00 695.00  C 518.00 695.00 517.02 694.89 517.00 695.00 C 515.45 701.96 531.62 698.19 536.00 699.00 C 540.38 699.81 553.75 698.12 558.00 699.00 C 562.25 699.88 578.37 699.37 573.00 694.00 C 573.00 695.33 573.00 696.67 573.00 698.00 C 554.67 698.00 536.33 698.00 518.00 698.00 C 518.04 697.00 517.95 696.00 518.00 695.00 Z" data-index="67"/>
</g>
<g fill="#F4F4F4" fill-opacity="1.00" stroke="None">

</g>
<g fill="#6E767F" fill-opacity="1.00" stroke="None">
<path d=" M 496.00 286.00  C 504.00 286.00 512.00 286.00 520.00 286.00 C 512.52 285.28 503.55 285.27 496.00 286.00 Z" data-index="69"/>
</g>
<g fill="#0B1B36" fill-opacity="1.00" stroke="None">
<path d=" M 288.00 496.00  C 288.00 504.00 288.00 512.00 288.00 520.00 C 288.00 564.93 306.86 608.85 333.00 644.00 C 333.04 643.45 334.84 641.53 335.00 641.00 C 339.19 627.48 341.17 612.73 345.00 599.00 C 346.41 593.94 348.47 589.21 351.00 585.00 C 355.45 573.93 362.17 563.01 369.75 553.75 C 377.33 544.49 385.88 535.82 395.23 528.23 C 404.58 520.64 415.24 513.39 426.23 508.23 C 437.22 503.07 448.61 497.11 459.25 491.25 C 469.88 485.38 481.74 479.74 491.70 472.70 C 501.66 465.65 510.55 457.79 518.30 448.30 C 526.06 438.82 532.14 427.63 536.99 416.99 C 541.84 406.35 551.79 387.63 538.31 382.69 C 524.82 377.76 518.09 369.56 505.00 365.00 C 515.60 357.88 528.03 352.82 540.00 348.00 C 546.44 344.71 552.83 340.30 560.00 338.00 C 569.61 334.92 578.49 329.42 588.00 326.00 C 591.90 324.01 595.46 321.51 600.00 320.00 C 604.78 318.41 611.69 316.47 616.00 314.00 C 616.23 313.87 617.10 312.29 617.00 312.00 C 587.90 296.30 553.81 286.00 520.00 286.00 C 512.00 286.00 504.00 286.00 496.00 286.00 C 388.31 286.00 288.00 389.33 288.00 496.00 M 509.00 400.00  C 511.24 403.85 510.00 411.26 510.00 416.00 C 510.00 419.52 510.80 424.30 509.00 427.00 C 505.41 432.39 504.37 423.21 505.00 419.00 C 505.63 414.79 504.53 407.49 505.00 403.00 C 501.54 403.14 499.25 406.46 496.00 407.00 C 496.64 413.37 496.99 422.73 490.30 425.30 C 483.62 427.88 475.98 429.82 469.00 429.00 C 462.02 428.19 455.47 426.80 450.26 422.74 C 445.04 418.69 453.50 406.25 443.77 405.23 C 434.04 404.20 434.75 397.80 441.69 395.69 C 448.64 393.59 452.28 389.73 458.23 387.23 C 464.18 384.72 469.96 379.94 476.07 382.93 C 482.18 385.91 486.87 388.50 492.69 391.31 C 498.52 394.11 504.44 395.55 509.00 400.00 M 393.00 480.00  C 395.38 486.45 395.36 501.62 393.00 508.00 C 389.84 516.57 377.04 514.21 370.00 514.00 C 362.96 513.79 347.59 516.91 345.70 508.30 C 343.80 499.70 343.33 488.73 345.00 480.00 C 346.67 471.27 362.31 474.20 369.00 474.00 C 375.69 473.80 390.02 471.92 393.00 480.00 Z" data-index="70" style="opacity: 1;"/>
</g>
<g fill="#275962" fill-opacity="1.00" stroke="None">
<path d=" M 616.00 314.00  C 617.32 315.64 621.45 316.14 623.00 319.00 C 622.77 318.35 621.66 314.52 622.00 315.00 C 620.50 314.13 618.61 312.87 617.00 312.00 C 617.10 312.29 616.23 313.87 616.00 314.00 Z" data-index="71"/>
</g>
<g fill="#0C9292" fill-opacity="1.00" stroke="None">
<path d=" M 600.00 320.00  C 596.08 321.81 592.27 324.46 588.00 326.00 C 578.49 329.42 569.61 334.92 560.00 338.00 C 553.38 341.27 547.08 345.45 540.00 348.00 C 528.03 352.82 515.60 357.88 505.00 365.00 C 518.09 369.56 524.82 377.76 538.31 382.69 C 551.79 387.63 541.84 406.35 536.99 416.99 C 532.14 427.63 526.06 438.82 518.30 448.30 C 510.55 457.79 501.66 465.65 491.70 472.70 C 481.74 479.74 469.88 485.38 459.25 491.25 C 448.61 497.11 437.22 503.07 426.23 508.23 C 415.24 513.39 404.58 520.64 395.23 528.23 C 385.88 535.82 377.33 544.49 369.75 553.75 C 362.17 563.01 355.45 573.93 351.00 585.00 C 349.16 589.58 346.71 594.65 345.00 599.00 C 341.17 612.73 339.19 627.48 335.00 641.00 C 335.47 653.90 353.13 663.12 360.75 673.25 C 368.37 683.38 384.66 690.23 394.00 698.00 C 394.01 655.34 409.13 606.87 438.75 575.75 C 468.37 544.63 509.02 536.97 542.75 512.75 C 576.48 488.54 604.30 453.24 610.00 412.00 C 627.99 419.59 645.13 429.96 663.00 438.00 C 650.69 398.02 636.19 358.70 623.00 319.00 C 621.45 316.14 617.32 315.64 616.00 314.00 C 611.69 316.47 604.78 318.41 600.00 320.00 Z" data-index="72" style="opacity: 1;"/>
</g>
<g fill="#0A1E33" fill-opacity="1.00" stroke="None">
<path d=" M 623.00 319.00  C 636.19 358.70 650.69 398.02 663.00 438.00 C 645.13 429.96 627.99 419.59 610.00 412.00 C 604.30 453.24 576.48 488.54 542.75 512.75 C 509.02 536.97 468.37 544.63 438.75 575.75 C 409.13 606.87 394.01 655.34 394.00 698.00 C 394.00 698.50 393.85 699.55 394.00 700.00 C 398.42 702.41 403.38 705.56 408.00 708.00 C 407.42 701.69 408.33 694.54 409.00 689.00 C 409.15 681.50 411.09 674.29 413.00 668.00 C 413.75 662.87 414.67 657.98 416.00 653.00 C 420.03 608.64 458.59 565.70 501.68 549.68 C 544.77 533.66 582.40 503.06 607.00 463.00 C 607.76 461.35 608.27 459.57 609.00 458.00 C 611.28 448.28 614.45 443.71 615.00 433.00 C 615.55 422.29 624.85 424.05 631.75 429.25 C 638.64 434.46 645.05 435.77 652.08 439.92 C 659.12 444.07 665.45 447.63 673.00 450.00 C 660.72 409.31 643.12 369.61 633.00 328.00 C 633.05 327.51 633.00 327.00 633.00 327.00 C 633.09 326.06 634.29 325.98 635.00 326.00 C 640.15 326.12 647.10 335.34 650.90 338.10 C 654.70 340.86 663.56 347.54 665.00 352.00 C 665.40 352.20 666.00 352.00 666.00 352.00 C 671.12 354.51 676.51 361.06 680.00 363.00 C 679.03 361.82 678.17 359.48 677.00 358.00 C 672.03 352.63 666.14 347.14 661.00 342.00 C 648.77 331.55 635.60 322.83 622.00 315.00 C 621.66 314.52 622.77 318.35 623.00 319.00 Z" data-index="73" style="opacity: 1;"/>
</g>
<g fill="#064E5A" fill-opacity="1.00" stroke="None">
<path d=" M 588.00 326.00  C 592.27 324.46 596.08 321.81 600.00 320.00 C 595.46 321.51 591.90 324.01 588.00 326.00 Z" data-index="74"/>
</g>
<g fill="#583C24" fill-opacity="1.00" stroke="None">
<path d=" M 633.00 327.00  C 637.13 327.44 643.77 334.24 647.00 337.00 C 649.58 339.21 652.14 342.26 655.00 344.00 C 652.00 341.20 649.10 336.34 645.25 334.75 C 641.41 333.15 638.62 326.93 635.00 326.00 C 634.29 325.98 633.09 326.06 633.00 327.00 Z" data-index="75"/>
</g>
<g fill="#14090A" fill-opacity="1.00" stroke="None">
<path d=" M 655.00 344.00  C 655.64 344.39 656.39 344.63 657.00 345.00 C 660.01 346.83 661.89 350.48 665.00 352.00 C 663.56 347.54 654.70 340.86 650.90 338.10 C 647.10 335.34 640.15 326.12 635.00 326.00 C 638.62 326.93 641.41 333.15 645.25 334.75 C 649.10 336.34 652.00 341.20 655.00 344.00 Z" data-index="76"/>
</g>
<g fill="#E08725" fill-opacity="1.00" stroke="None">
<path d=" M 633.00 328.00  C 638.64 332.31 637.33 345.18 641.32 351.68 C 645.31 358.18 646.00 368.34 649.32 375.68 C 652.65 383.01 655.33 391.31 657.78 399.22 C 660.22 407.14 663.53 415.98 666.00 424.00 C 667.53 427.59 668.92 430.96 670.00 435.00 C 671.18 439.40 673.17 443.46 674.00 448.00 C 674.56 449.66 676.60 451.67 676.00 454.00 C 672.89 452.98 668.91 451.85 667.00 449.00 C 650.75 441.99 635.65 432.17 619.00 426.00 C 616.10 436.71 614.57 448.51 609.00 458.00 C 608.27 459.57 607.76 461.35 607.00 463.00 C 600.75 476.50 592.82 488.51 583.00 500.00 C 578.88 504.83 574.15 510.33 569.00 514.00 C 541.77 533.45 512.99 546.82 483.00 561.00 C 479.72 563.11 476.53 565.90 473.00 568.00 C 468.73 570.53 464.79 573.76 461.00 577.00 C 453.20 584.80 444.17 593.36 438.00 602.00 C 428.70 618.52 420.92 634.59 416.00 653.00 C 414.67 657.98 413.75 662.87 413.00 668.00 C 411.09 681.11 409.39 694.25 410.00 708.00 C 430.87 718.90 454.12 726.01 477.00 730.00 C 477.99 729.92 479.01 730.07 480.00 730.00 C 479.23 716.88 481.51 704.57 483.00 692.00 C 483.79 686.62 485.21 681.74 487.00 677.00 C 488.16 672.25 490.07 667.48 492.00 663.00 C 494.99 656.06 498.94 649.98 503.00 644.00 C 510.10 630.11 521.70 616.58 535.00 608.00 C 541.57 602.60 547.75 598.44 555.00 594.00 C 560.63 589.73 567.01 586.67 573.00 583.00 C 575.18 582.74 572.06 579.89 570.92 581.93 C 569.78 583.97 567.68 582.99 567.00 583.00 C 560.24 583.07 551.94 577.76 545.99 577.01 C 540.04 576.26 530.53 588.63 529.01 578.99 C 527.49 569.35 530.26 560.29 529.00 551.00 C 527.74 541.71 535.60 540.57 541.69 536.70 C 547.79 532.82 556.32 536.88 561.70 540.31 C 567.07 543.73 576.97 531.14 581.67 534.33 C 586.38 537.52 597.35 538.40 598.75 544.25 C 600.15 550.10 600.84 566.10 599.00 572.00 C 603.13 565.94 615.19 561.77 621.00 557.00 C 624.25 554.33 627.67 550.84 631.00 548.00 C 636.59 542.41 642.46 536.54 648.00 531.00 C 649.46 529.29 651.68 527.61 653.00 526.00 C 653.95 524.53 654.86 522.57 656.00 521.00 C 658.70 517.30 661.65 513.61 664.00 510.00 C 666.49 505.99 668.80 501.26 672.00 498.00 C 672.10 497.52 672.00 497.00 672.00 497.00 C 676.77 485.42 682.05 475.32 684.93 462.93 C 687.80 450.53 692.30 436.27 691.93 422.93 C 691.55 409.59 694.24 389.71 690.00 377.00 C 688.76 373.94 681.55 369.18 679.00 367.00 C 674.01 362.74 669.74 357.35 665.00 353.00 C 664.06 352.29 662.90 351.68 662.00 351.00 C 656.45 346.80 651.88 341.88 647.00 337.00 C 643.77 334.24 637.13 327.44 633.00 327.00 C 633.00 327.00 633.05 327.51 633.00 328.00 Z" data-index="77" style="opacity: 1;"/>
</g>
<g fill="#2C1E15" fill-opacity="1.00" stroke="None">
<path d=" M 609.00 458.00  C 614.57 448.51 616.10 436.71 619.00 426.00 C 635.65 432.17 650.75 441.99 667.00 449.00 C 669.76 450.19 672.26 451.78 675.00 453.00 C 675.05 451.24 673.47 449.93 674.00 448.00 C 673.17 443.46 671.18 439.40 670.00 435.00 C 668.74 431.58 667.16 427.76 666.00 424.00 C 663.53 415.98 660.22 407.14 657.78 399.22 C 655.33 391.31 652.65 383.01 649.32 375.68 C 646.00 368.34 645.31 358.18 641.32 351.68 C 637.33 345.18 638.64 332.31 633.00 328.00 C 643.12 369.61 660.72 409.31 673.00 450.00 C 665.45 447.63 659.12 444.07 652.08 439.92 C 645.05 435.77 638.64 434.46 631.75 429.25 C 624.85 424.05 615.55 422.29 615.00 433.00 C 614.45 443.71 611.28 448.28 609.00 458.00 Z" data-index="78"/>
</g>
<g fill="#A67849" fill-opacity="1.00" stroke="None">
<path d=" M 662.00 351.00  C 660.19 349.34 658.74 346.62 657.00 345.00 C 656.39 344.63 655.64 344.39 655.00 344.00 C 652.14 342.26 649.58 339.21 647.00 337.00 C 651.88 341.88 656.45 346.80 662.00 351.00 Z" data-index="79"/>
</g>
<g fill="#074D59" fill-opacity="1.00" stroke="None">
<path d=" M 540.00 348.00  C 547.08 345.45 553.38 341.27 560.00 338.00 C 552.83 340.30 546.44 344.71 540.00 348.00 Z" data-index="80"/>
</g>
<g fill="#7A8386" fill-opacity="1.00" stroke="None">
<path d=" M 677.00 358.00  C 672.47 352.26 666.60 346.78 661.00 342.00 C 666.14 347.14 672.03 352.63 677.00 358.00 Z" data-index="81"/>
</g>
<g fill="#4B2F15" fill-opacity="1.00" stroke="None">
<path d=" M 662.00 351.00  C 662.90 351.68 664.06 352.29 665.00 353.00 C 670.25 356.97 674.44 362.44 679.00 367.00 C 681.55 369.18 688.76 373.94 690.00 377.00 C 688.31 371.92 681.44 369.14 678.25 364.75 C 675.06 360.37 669.14 356.50 666.00 352.00 C 666.00 352.00 665.40 352.20 665.00 352.00 C 661.89 350.48 660.01 346.83 657.00 345.00 C 658.74 346.62 660.19 349.34 662.00 351.00 Z" data-index="82"/>
</g>
<g fill="#281C15" fill-opacity="1.00" stroke="None">
<path d=" M 690.00 377.00  C 694.24 389.71 691.55 409.59 691.93 422.93 C 692.30 436.27 687.80 450.53 684.93 462.93 C 682.05 475.32 676.77 485.42 672.00 497.00 C 681.64 490.72 682.02 475.67 685.98 464.98 C 689.93 454.28 691.95 438.82 693.00 426.00 C 694.05 413.18 692.98 393.96 692.00 381.00 C 693.66 381.54 694.33 383.56 696.00 384.00 C 690.79 377.20 685.60 369.82 680.00 363.00 C 676.51 361.06 671.12 354.51 666.00 352.00 C 669.14 356.50 675.06 360.37 678.25 364.75 C 681.44 369.14 688.31 371.92 690.00 377.00 Z" data-index="83"/>
</g>
<g fill="#8C6237" fill-opacity="1.00" stroke="None">
<path d=" M 679.00 367.00  C 674.44 362.44 670.25 356.97 665.00 353.00 C 669.74 357.35 674.01 362.74 679.00 367.00 Z" data-index="84"/>
</g>
<g fill="#0B1A36" fill-opacity="1.00" stroke="None">
<path d=" M 672.00 497.00  C 672.00 497.00 672.10 497.52 672.00 498.00 C 670.99 502.62 666.44 507.26 664.00 511.00 C 663.63 512.02 663.36 513.00 663.00 514.00 C 659.40 523.92 647.30 532.83 641.25 541.25 C 635.20 549.67 634.01 548.45 628.25 553.25 C 622.49 558.05 619.18 561.66 613.92 563.92 C 608.66 566.18 604.10 574.99 599.00 574.00 C 599.00 577.33 599.00 580.67 599.00 584.00 C 594.39 583.18 590.44 580.43 586.00 579.00 C 576.77 579.03 567.30 590.43 558.30 593.30 C 549.30 596.18 542.31 606.91 534.23 611.23 C 526.15 615.56 519.77 626.08 512.75 631.75 C 505.73 637.43 503.58 654.10 496.00 657.00 C 495.83 657.43 496.00 658.00 496.00 658.00 C 494.37 664.96 491.31 669.10 489.22 676.22 C 487.14 683.34 485.82 688.07 484.07 696.07 C 482.33 704.08 484.37 710.58 483.00 720.00 C 481.63 729.42 488.72 730.07 496.00 733.00 C 517.84 735.11 546.09 732.32 566.33 726.33 C 586.56 720.33 604.06 713.83 621.25 703.25 C 638.45 692.68 651.58 682.98 666.25 669.25 C 680.91 655.51 690.29 642.77 701.23 626.23 C 712.17 609.69 719.29 591.83 725.22 572.22 C 731.16 552.62 735.32 523.54 734.00 502.00 C 732.68 480.46 730.81 454.00 722.31 435.69 C 713.80 417.39 711.52 397.04 696.00 384.00 C 694.33 383.56 693.66 381.54 692.00 381.00 C 692.98 393.96 694.05 413.18 693.00 426.00 C 691.95 438.82 689.93 454.28 685.98 464.98 C 682.02 475.67 681.64 490.72 672.00 497.00 M 574.00 636.00  C 575.88 638.69 572.59 644.99 574.00 648.00 C 571.12 648.81 569.85 646.10 569.00 644.00 C 563.72 650.20 558.60 651.48 553.75 658.75 C 548.91 666.03 542.00 664.74 537.00 657.00 C 533.50 659.44 529.79 663.95 526.75 666.75 C 523.71 669.55 517.67 678.10 517.00 670.00 C 517.35 667.11 524.21 662.29 526.25 660.25 C 528.28 658.21 533.17 651.31 536.00 651.00 C 539.84 650.58 543.70 656.67 546.00 659.00 C 552.88 654.87 557.93 646.75 564.00 641.00 C 562.09 639.98 556.37 639.53 560.00 636.00 C 561.69 634.31 572.54 633.91 574.00 636.00 M 560.00 690.00  C 555.97 685.97 560.85 676.43 559.00 671.00 C 557.15 665.57 563.30 660.89 567.00 658.00 C 567.20 657.68 567.70 657.22 568.00 657.00 C 570.35 655.30 569.72 665.29 570.00 669.00 C 570.28 672.71 568.85 680.17 570.00 685.00 C 571.15 689.83 564.20 694.20 560.00 690.00 M 550.00 674.00  C 553.36 679.42 550.24 699.24 541.00 690.00 C 538.59 687.59 539.50 676.58 541.00 674.00 C 543.06 670.45 547.89 670.59 550.00 674.00 M 522.00 690.00  C 519.01 687.01 522.17 679.93 521.00 676.00 C 524.00 676.00 527.00 676.00 530.00 676.00 C 536.82 679.37 530.54 698.54 522.00 690.00 M 573.00 694.00  C 578.37 699.37 562.25 699.88 558.00 699.00 C 553.75 698.12 540.38 699.81 536.00 699.00 C 531.62 698.19 515.45 701.96 517.00 695.00 C 517.88 690.90 529.70 693.15 534.00 693.00 C 538.30 692.85 549.24 692.37 554.00 693.00 C 558.76 693.63 569.71 690.71 573.00 694.00 Z" data-index="85" style="opacity: 1;"/>
</g>
<g fill="#DDE1E5" fill-opacity="1.00" stroke="None">
<path d=" M 509.00 427.00  C 510.10 424.40 509.00 418.87 509.00 416.00 C 509.00 411.69 510.54 403.97 509.00 400.00 C 504.44 395.55 498.52 394.11 492.69 391.31 C 486.87 388.50 482.18 385.91 476.07 382.93 C 469.96 379.94 464.18 384.72 458.23 387.23 C 452.28 389.73 448.64 393.59 441.69 395.69 C 434.75 397.80 434.04 404.20 443.77 405.23 C 453.50 406.25 445.04 418.69 450.26 422.74 C 455.47 426.80 462.02 428.19 469.00 429.00 C 475.98 429.82 483.62 427.88 490.30 425.30 C 496.99 422.73 496.64 413.37 496.00 407.00 C 499.25 406.46 501.54 403.14 505.00 403.00 C 504.53 407.49 505.63 414.79 505.00 419.00 C 504.37 423.21 505.41 432.39 509.00 427.00 M 499.00 401.00  C 489.77 401.82 481.24 413.03 471.98 412.98 C 462.71 412.92 454.21 402.12 445.00 401.00 C 451.74 397.27 462.83 386.66 472.01 387.01 C 481.19 387.35 492.52 396.90 499.00 401.00 M 491.00 410.00  C 491.00 413.33 491.00 416.67 491.00 420.00 C 479.49 425.69 465.25 426.72 454.00 420.00 C 454.00 417.00 454.00 414.00 454.00 411.00 C 466.38 418.34 478.92 417.06 491.00 410.00 Z" data-index="86" style="opacity: 1;"/>
</g>
<g fill="#0E1C34" fill-opacity="1.00" stroke="None">
<path d=" M 499.00 401.00  C 492.52 396.90 481.19 387.35 472.01 387.01 C 462.83 386.66 451.74 397.27 445.00 401.00 C 454.21 402.12 462.71 412.92 471.98 412.98 C 481.24 413.03 489.77 401.82 499.00 401.00 Z" data-index="87"/>
</g>
<g fill="#555D67" fill-opacity="1.00" stroke="None">
<path d=" M 509.00 416.00  C 509.00 415.96 510.00 416.00 510.00 416.00 C 510.00 411.26 511.24 403.85 509.00 400.00 C 510.54 403.97 509.00 411.69 509.00 416.00 Z" data-index="88"/>
</g>
<g fill="#0F1B2E" fill-opacity="1.00" stroke="None">
<path d=" M 491.00 410.00  C 478.92 417.06 466.38 418.34 454.00 411.00 C 454.00 414.00 454.00 417.00 454.00 420.00 C 465.25 426.72 479.49 425.69 491.00 420.00 C 491.00 416.67 491.00 413.33 491.00 410.00 Z" data-index="89"/>
</g>
<g fill="#767E8A" fill-opacity="1.00" stroke="None">
<path d=" M 509.00 427.00  C 510.80 424.30 510.00 419.52 510.00 416.00 C 510.00 416.00 509.00 415.96 509.00 416.00 C 509.00 418.87 510.10 424.40 509.00 427.00 Z" data-index="90"/>
</g>
<g fill="#92683A" fill-opacity="1.00" stroke="None">
<path d=" M 670.00 435.00  C 668.92 430.96 667.53 427.59 666.00 424.00 C 667.16 427.76 668.74 431.58 670.00 435.00 Z" data-index="91"/>
</g>
<g fill="#714B21" fill-opacity="1.00" stroke="None">
<path d=" M 667.00 449.00  C 668.91 451.85 672.89 452.98 676.00 454.00 C 676.60 451.67 674.56 449.66 674.00 448.00 C 673.47 449.93 675.05 451.24 675.00 453.00 C 672.26 451.78 669.76 450.19 667.00 449.00 Z" data-index="92"/>
</g>
<g fill="#241911" fill-opacity="1.00" stroke="None">
<path d=" M 416.00 653.00  C 420.92 634.59 428.70 618.52 438.00 602.00 C 443.27 592.65 452.78 584.03 461.00 577.00 C 464.79 573.76 468.73 570.53 473.00 568.00 C 476.34 565.52 479.05 562.87 483.00 561.00 C 512.99 546.82 541.77 533.45 569.00 514.00 C 573.75 510.02 578.63 504.37 583.00 500.00 C 592.82 488.51 600.75 476.50 607.00 463.00 C 582.40 503.06 544.77 533.66 501.68 549.68 C 458.59 565.70 420.03 608.64 416.00 653.00 Z" data-index="93"/>
</g>
<g fill="#E4E6EA" fill-opacity="1.00" stroke="None">
<path d=" M 393.00 508.00  C 394.54 501.05 394.54 486.95 393.00 480.00 C 390.02 471.92 375.69 473.80 369.00 474.00 C 362.31 474.20 346.67 471.27 345.00 480.00 C 343.33 488.73 343.80 499.70 345.70 508.30 C 347.59 516.91 362.96 513.79 370.00 514.00 C 377.04 514.21 389.84 516.57 393.00 508.00 M 352.00 509.00  C 346.94 507.16 347.47 484.51 350.00 481.00 C 355.47 473.42 365.83 482.54 375.00 479.00 C 384.17 475.46 390.56 483.00 389.00 492.00 C 387.44 501.00 390.82 511.73 379.00 509.00 C 367.18 506.27 362.47 512.82 352.00 509.00 Z" data-index="94"/>
</g>
<g fill="#0A182F" fill-opacity="1.00" stroke="None">
<path d=" M 350.00 481.00  C 348.44 484.16 350.44 492.64 350.00 496.00 C 349.56 499.36 348.73 507.31 352.00 509.00 C 362.47 512.82 367.18 506.27 379.00 509.00 C 390.82 511.73 387.44 501.00 389.00 492.00 C 390.56 483.00 384.17 475.46 375.00 479.00 C 365.83 482.54 355.47 473.42 350.00 481.00 M 385.00 482.00  C 388.00 483.73 384.97 492.37 386.00 495.00 C 387.03 497.63 386.08 506.93 382.30 505.64 C 378.53 504.35 382.05 495.38 381.00 493.00 C 379.95 490.62 380.48 479.40 385.00 482.00 Z" data-index="95"/>
</g>
<g fill="#828A95" fill-opacity="1.00" stroke="None">
<path d=" M 393.00 508.00  C 395.36 501.62 395.38 486.45 393.00 480.00 C 394.54 486.95 394.54 501.05 393.00 508.00 Z" data-index="96"/>
</g>
<g fill="#80868E" fill-opacity="1.00" stroke="None">
<path d=" M 352.00 509.00  C 348.73 507.31 349.56 499.36 350.00 496.00 C 350.44 492.64 348.44 484.16 350.00 481.00 C 347.47 484.51 346.94 507.16 352.00 509.00 Z" data-index="97"/>
</g>
<g fill="#D3D8DC" fill-opacity="1.00" stroke="None">
<path d=" M 385.00 482.00  C 380.48 479.40 379.95 490.62 381.00 493.00 C 382.05 495.38 378.53 504.35 382.30 505.64 C 386.08 506.93 387.03 497.63 386.00 495.00 C 384.97 492.37 388.00 483.73 385.00 482.00 Z" data-index="98"/>
</g>
<g fill="#7D848C" fill-opacity="1.00" stroke="None">
<path d=" M 288.00 520.00  C 288.00 512.00 288.00 504.00 288.00 496.00 C 287.28 503.48 287.27 512.45 288.00 520.00 Z" data-index="99"/>
</g>
<g fill="#2F2016" fill-opacity="1.00" stroke="None">
<path d=" M 664.00 510.00  C 663.78 510.36 664.00 511.00 664.00 511.00 C 666.44 507.26 670.99 502.62 672.00 498.00 C 668.80 501.26 666.49 505.99 664.00 510.00 Z" data-index="100"/>
</g>
<g fill="#7E5931" fill-opacity="1.00" stroke="None">
<path d=" M 569.00 514.00  C 574.15 510.33 578.88 504.83 583.00 500.00 C 578.63 504.37 573.75 510.02 569.00 514.00 Z" data-index="101"/>
</g>
<g fill="#593C1D" fill-opacity="1.00" stroke="None">
<path d=" M 656.00 521.00  C 658.07 518.76 661.48 516.50 663.00 514.00 C 663.36 513.00 663.63 512.02 664.00 511.00 C 664.00 511.00 663.78 510.36 664.00 510.00 C 661.65 513.61 658.70 517.30 656.00 521.00 Z" data-index="102"/>
</g>
<g fill="#211914" fill-opacity="1.00" stroke="None">
<path d=" M 656.00 521.00  C 654.86 522.57 653.95 524.53 653.00 526.00 C 645.54 537.56 632.18 549.79 621.00 557.00 C 615.19 561.77 603.13 565.94 599.00 572.00 C 598.77 572.34 599.00 573.50 599.00 574.00 C 604.10 574.99 608.66 566.18 613.92 563.92 C 619.18 561.66 622.49 558.05 628.25 553.25 C 634.01 548.45 635.20 549.67 641.25 541.25 C 647.30 532.83 659.40 523.92 663.00 514.00 C 661.48 516.50 658.07 518.76 656.00 521.00 Z" data-index="103"/>
</g>
<g fill="#51381F" fill-opacity="1.00" stroke="None">
<path d=" M 648.00 531.00  C 642.86 537.01 636.96 542.91 631.00 548.00 C 627.67 550.84 624.25 554.33 621.00 557.00 C 632.18 549.79 645.54 537.56 653.00 526.00 C 651.68 527.61 649.46 529.29 648.00 531.00 Z" data-index="104"/>
</g>
<g fill="#AF814E" fill-opacity="1.00" stroke="None">
<path d=" M 631.00 548.00  C 636.96 542.91 642.86 537.01 648.00 531.00 C 642.46 536.54 636.59 542.41 631.00 548.00 Z" data-index="105"/>
</g>
<g fill="#F7E8CE" fill-opacity="1.00" stroke="None">
<path d=" M 567.00 583.00  C 572.89 581.78 574.79 576.50 582.00 577.00 C 582.50 577.03 583.50 577.03 584.00 577.00 C 589.86 576.59 592.21 580.53 597.00 580.00 C 595.96 577.47 595.09 572.32 599.00 572.00 C 600.84 566.10 600.15 550.10 598.75 544.25 C 597.35 538.40 586.38 537.52 581.67 534.33 C 576.97 531.14 567.07 543.73 561.70 540.31 C 556.32 536.88 547.79 532.82 541.69 536.70 C 535.60 540.57 527.74 541.71 529.00 551.00 C 530.26 560.29 527.49 569.35 529.01 578.99 C 530.53 588.63 540.04 576.26 545.99 577.01 C 551.94 577.76 560.24 583.07 567.00 583.00 M 562.00 577.00  C 552.92 571.46 543.20 569.31 534.00 576.00 C 535.95 567.94 530.41 551.29 536.25 545.25 C 542.09 539.21 554.38 538.68 560.22 544.78 C 566.06 550.88 559.54 568.96 562.00 577.00 M 594.00 545.00  C 594.00 555.33 594.00 565.67 594.00 576.00 C 584.49 572.02 576.31 570.27 567.00 576.00 C 568.96 565.76 563.19 552.64 569.70 544.70 C 576.21 536.76 586.39 542.29 594.00 545.00 Z" data-index="106"/>
</g>
<g fill="#DD882C" fill-opacity="1.00" stroke="None">
<path d=" M 562.00 577.00  C 559.54 568.96 566.06 550.88 560.22 544.78 C 554.38 538.68 542.09 539.21 536.25 545.25 C 530.41 551.29 535.95 567.94 534.00 576.00 C 543.20 569.31 552.92 571.46 562.00 577.00 Z" data-index="107" style="opacity: 1;"/>
</g>
<g fill="#DD882B" fill-opacity="1.00" stroke="None">
<path d=" M 594.00 545.00  C 586.39 542.29 576.21 536.76 569.70 544.70 C 563.19 552.64 568.96 565.76 567.00 576.00 C 576.31 570.27 584.49 572.02 594.00 576.00 C 594.00 565.67 594.00 555.33 594.00 545.00 Z" data-index="108"/>
</g>
<g fill="#684928" fill-opacity="1.00" stroke="None">
<path d=" M 473.00 568.00  C 476.53 565.90 479.72 563.11 483.00 561.00 C 479.05 562.87 476.34 565.52 473.00 568.00 Z" data-index="109"/>
</g>
<g fill="#DADBDF" fill-opacity="1.00" stroke="None">
<path d=" M 584.00 577.00  C 584.58 577.16 585.50 578.68 586.00 579.00 C 590.44 580.43 594.39 583.18 599.00 584.00 C 599.00 580.67 599.00 577.33 599.00 574.00 C 599.00 573.50 598.77 572.34 599.00 572.00 C 595.09 572.32 595.96 577.47 597.00 580.00 C 592.21 580.53 589.86 576.59 584.00 577.00 Z" data-index="110"/>
</g>
<g fill="#61401E" fill-opacity="1.00" stroke="None">
<path d=" M 438.00 602.00  C 444.17 593.36 453.20 584.80 461.00 577.00 C 452.78 584.03 443.27 592.65 438.00 602.00 Z" data-index="111"/>
</g>
<g fill="#B0824B" fill-opacity="1.00" stroke="None">
<path d=" M 567.00 583.00  C 567.68 582.99 569.78 583.97 570.92 581.93 C 572.06 579.89 575.18 582.74 573.00 583.00 C 576.04 581.13 579.18 578.73 582.00 577.00 C 574.79 576.50 572.89 581.78 567.00 583.00 Z" data-index="112"/>
</g>
<g fill="#201715" fill-opacity="1.00" stroke="None">
<path d=" M 573.00 583.00  C 567.01 586.67 560.63 589.73 555.00 594.00 C 548.75 598.74 541.79 603.62 535.00 608.00 C 521.70 616.58 510.10 630.11 503.00 644.00 C 500.75 648.40 497.82 652.37 496.00 657.00 C 503.58 654.10 505.73 637.43 512.75 631.75 C 519.77 626.08 526.15 615.56 534.23 611.23 C 542.31 606.91 549.30 596.18 558.30 593.30 C 567.30 590.43 576.77 579.03 586.00 579.00 C 585.50 578.68 584.58 577.16 584.00 577.00 C 583.50 577.03 582.50 577.03 582.00 577.00 C 579.18 578.73 576.04 581.13 573.00 583.00 Z" data-index="113"/>
</g>
<g fill="#0C4C5B" fill-opacity="1.00" stroke="None">
<path d=" M 345.00 599.00  C 346.71 594.65 349.16 589.58 351.00 585.00 C 348.47 589.21 346.41 593.94 345.00 599.00 Z" data-index="114"/>
</g>
<g fill="#4D3214" fill-opacity="1.00" stroke="None">
<path d=" M 535.00 608.00  C 541.79 603.62 548.75 598.74 555.00 594.00 C 547.75 598.44 541.57 602.60 535.00 608.00 Z" data-index="115"/>
</g>
<g fill="#747A86" fill-opacity="1.00" stroke="None">
<path d=" M 560.00 636.00  C 563.33 633.89 570.33 637.58 574.00 636.00 C 572.54 633.91 561.69 634.31 560.00 636.00 Z" data-index="116"/>
</g>
<g fill="#E5E9EC" fill-opacity="1.00" stroke="None">
<path d=" M 536.00 651.00  C 534.45 654.76 528.42 657.30 526.75 660.75 C 525.09 664.20 517.65 666.82 517.00 670.00 C 517.67 678.10 523.71 669.55 526.75 666.75 C 529.79 663.95 533.50 659.44 537.00 657.00 C 542.00 664.74 548.91 666.03 553.75 658.75 C 558.60 651.48 563.72 650.20 569.00 644.00 C 569.85 646.10 571.12 648.81 574.00 648.00 C 572.59 644.99 575.88 638.69 574.00 636.00 C 570.33 637.58 563.33 633.89 560.00 636.00 C 556.37 639.53 562.09 639.98 564.00 641.00 C 557.93 646.75 552.88 654.87 546.00 659.00 C 543.70 656.67 539.84 650.58 536.00 651.00 Z" data-index="117"/>
</g>
<g fill="#224C52" fill-opacity="1.00" stroke="None">
<path d=" M 333.00 644.00  C 349.58 666.29 369.72 686.76 394.00 700.00 C 393.85 699.55 394.00 698.50 394.00 698.00 C 384.66 690.23 368.37 683.38 360.75 673.25 C 353.13 663.12 335.47 653.90 335.00 641.00 C 334.84 641.53 333.04 643.45 333.00 644.00 Z" data-index="118"/>
</g>
<g fill="#573C21" fill-opacity="1.00" stroke="None">
<path d=" M 492.00 663.00  C 492.80 661.54 494.94 659.32 496.00 658.00 C 496.00 658.00 495.83 657.43 496.00 657.00 C 497.82 652.37 500.75 648.40 503.00 644.00 C 498.94 649.98 494.99 656.06 492.00 663.00 Z" data-index="119"/>
</g>
<g fill="#757D86" fill-opacity="1.00" stroke="None">
<path d=" M 517.00 670.00  C 517.65 666.82 525.09 664.20 526.75 660.75 C 528.42 657.30 534.45 654.76 536.00 651.00 C 533.17 651.31 528.28 658.21 526.25 660.25 C 524.21 662.29 517.35 667.11 517.00 670.00 Z" data-index="120"/>
</g>
<g fill="#80878F" fill-opacity="1.00" stroke="None">
<path d=" M 568.00 657.00  C 571.50 658.96 567.93 668.95 569.00 673.00 C 570.07 677.05 568.20 685.54 569.00 690.00 C 566.00 690.00 563.00 690.00 560.00 690.00 C 564.20 694.20 571.15 689.83 570.00 685.00 C 568.85 680.17 570.28 672.71 570.00 669.00 C 569.72 665.29 570.35 655.30 568.00 657.00 Z" data-index="121"/>
</g>
<g fill="#F9FBFB" fill-opacity="1.00" stroke="None">
<path d=" M 567.00 658.00  C 564.15 662.61 559.22 663.72 560.00 670.00 C 560.78 676.28 559.41 683.63 560.00 690.00 C 563.00 690.00 566.00 690.00 569.00 690.00 C 568.20 685.54 570.07 677.05 569.00 673.00 C 567.93 668.95 571.50 658.96 568.00 657.00 C 567.70 657.22 567.20 657.68 567.00 658.00 Z" data-index="122"/>
</g>
<g fill="#1E1816" fill-opacity="1.00" stroke="None">
<path d=" M 492.00 663.00  C 490.07 667.48 488.16 672.25 487.00 677.00 C 485.79 681.96 484.17 687.41 483.00 692.00 C 481.51 704.57 479.23 716.88 480.00 730.00 C 479.01 730.07 477.99 729.92 477.00 730.00 C 476.65 730.03 476.22 730.96 476.00 731.00 C 482.71 731.98 489.17 732.34 496.00 733.00 C 488.72 730.07 481.63 729.42 483.00 720.00 C 484.37 710.58 482.33 704.08 484.07 696.07 C 485.82 688.07 487.14 683.34 489.22 676.22 C 491.31 669.10 494.37 664.96 496.00 658.00 C 494.94 659.32 492.80 661.54 492.00 663.00 Z" data-index="123"/>
</g>
<g fill="#616771" fill-opacity="1.00" stroke="None">
<path d=" M 560.00 690.00  C 559.41 683.63 560.78 676.28 560.00 670.00 C 559.22 663.72 564.15 662.61 567.00 658.00 C 563.30 660.89 557.15 665.57 559.00 671.00 C 560.85 676.43 555.97 685.97 560.00 690.00 Z" data-index="124"/>
</g>
<g fill="#4D331C" fill-opacity="1.00" stroke="None">
<path d=" M 409.00 689.00  C 408.88 695.18 409.92 702.65 408.00 708.00 C 429.62 719.42 451.39 727.41 476.00 731.00 C 476.22 730.96 476.65 730.03 477.00 730.00 C 454.12 726.01 430.87 718.90 410.00 708.00 C 409.39 694.25 411.09 681.11 413.00 668.00 C 411.09 674.29 409.15 681.50 409.00 689.00 Z" data-index="125" style="opacity: 1;"/>
</g>
<g fill="#F0F3F5" fill-opacity="1.00" stroke="None">
<path d=" M 541.00 674.00  C 539.20 678.64 542.35 685.19 541.00 690.00 C 544.00 690.00 547.00 690.00 550.00 690.00 C 550.00 684.67 550.00 679.33 550.00 674.00 C 547.89 670.59 543.06 670.45 541.00 674.00 Z" data-index="126"/>
</g>
<g fill="#9BA1AB" fill-opacity="1.00" stroke="None">
<path d=" M 541.00 690.00  C 542.35 685.19 539.20 678.64 541.00 674.00 C 539.50 676.58 538.59 687.59 541.00 690.00 Z" data-index="127"/>
</g>
<g fill="#57606B" fill-opacity="1.00" stroke="None">
<path d=" M 541.00 690.00  C 550.24 699.24 553.36 679.42 550.00 674.00 C 550.00 679.33 550.00 684.67 550.00 690.00 C 547.00 690.00 544.00 690.00 541.00 690.00 Z" data-index="128"/>
</g>
<g fill="#EDF0F2" fill-opacity="1.00" stroke="None">
<path d=" M 522.00 690.00  C 524.01 691.41 528.74 688.94 531.00 690.00 C 530.52 685.37 532.08 680.20 530.00 676.00 C 527.00 676.00 524.00 676.00 521.00 676.00 C 522.17 679.93 519.01 687.01 522.00 690.00 Z" data-index="129"/>
</g>
<g fill="#5A626B" fill-opacity="1.00" stroke="None">
<path d=" M 522.00 690.00  C 530.54 698.54 536.82 679.37 530.00 676.00 C 532.08 680.20 530.52 685.37 531.00 690.00 C 528.74 688.94 524.01 691.41 522.00 690.00 Z" data-index="130"/>
</g>
<g fill="#856038" fill-opacity="1.00" stroke="None">
<path d=" M 483.00 692.00  C 484.17 687.41 485.79 681.96 487.00 677.00 C 485.21 681.74 483.79 686.62 483.00 692.00 Z" data-index="131"/>
</g>
<g fill="#160F16" fill-opacity="1.00" stroke="None">
<path d=" M 408.00 708.00  C 409.92 702.65 408.88 695.18 409.00 689.00 C 408.33 694.54 407.42 701.69 408.00 708.00 Z" data-index="132"/>
</g>
<g fill="#505763" fill-opacity="1.00" stroke="None">
<path d=" M 517.00 695.00  C 517.02 694.89 518.00 695.00 518.00 695.00 C 524.33 690.31 536.92 695.68 545.00 694.00 C 553.08 692.32 564.60 695.26 573.00 694.00 C 569.71 690.71 558.76 693.63 554.00 693.00 C 549.24 692.37 538.30 692.85 534.00 693.00 C 529.70 693.15 517.88 690.90 517.00 695.00 Z" data-index="133"/>
</g>
<g fill="#F8F9FC" fill-opacity="1.00" stroke="None">
<path d=" M 518.00 695.00  C 517.95 696.00 518.04 697.00 518.00 698.00 C 536.33 698.00 554.67 698.00 573.00 698.00 C 573.00 696.67 573.00 695.33 573.00 694.00 C 564.60 695.26 553.08 692.32 545.00 694.00 C 536.92 695.68 524.33 690.31 518.00 695.00 Z" data-index="134"/>
</g>
<g fill="#8A909B" fill-opacity="1.00" stroke="None">
<path d=" M 518.00 695.00  C 518.00 695.00 517.02 694.89 517.00 695.00 C 515.45 701.96 531.62 698.19 536.00 699.00 C 540.38 699.81 553.75 698.12 558.00 699.00 C 562.25 699.88 578.37 699.37 573.00 694.00 C 573.00 695.33 573.00 696.67 573.00 698.00 C 554.67 698.00 536.33 698.00 518.00 698.00 C 518.04 697.00 517.95 696.00 518.00 695.00 Z" data-index="135"/>
</g>
</svg>