<?xml version="1.0" encoding="UTF-8"?>
<svg id="Layer_1" xmlns="http://www.w3.org/2000/svg" version="1.1" viewBox="0 0 984.56 792">
  <!-- Generator: Adobe Illustrator 29.6.1, SVG Export Plug-In . SVG Version: 2.1.1 Build 9)  -->
  <defs>
    <style>
      .st0 {
        fill: #56b234;
      }

      .st1 {
        fill: #156395;
      }

      .st2 {
        fill: #175f92;
      }
    </style>
  </defs>
  <path class="st1" d="M231.85,421.59c30.31-22.32,68.45-32.86,105.89-33.9l27.1,106.89c-39.99,2.44-80.95,11.04-112.48,37.03l-5.51,5.98c30.87-15.07,65.49-21.12,99.83-18.84l9.15,16.83c-39.33-1.88-76.96,4.49-112.67,20.83-9.85,4.51-19.1,10.46-28.59,15.05-24.31-15.63-51.97-27.36-80.55-32.56-19.86-3.62-39.09-3.58-59.18-3.32l9.15-16.83c28.13-1.86,54.85,1.64,81.36,10.82,5.98,2.07,11.63,5.35,17.55,7.45,1,.36,3.04,1.56,2.92-.42-4.73-2.27-8.39-6.75-12.66-9.84-20.09-14.55-44.8-23.43-69.15-27.85-12.66-2.3-25.44-2.91-38.19-4.33l27.1-106.89c38.88.18,76.92,13.25,108.89,34.9l-56.37-81.12c-33.07-63.51,19.78-134.84,90.6-118.6,52.5,12.04,76.7,73.58,50.3,119.74-13.25,23.17-34.08,46.22-48.93,69.07-.84,1.29-6.07,9.37-5.58,9.91ZM244.53,276.9c-31.5-37.06-88.35,11.68-55.2,48.7s84.87-13.79,55.2-48.7ZM206.84,529.6v-80.5c-26.76-25.04-63.63-38.14-99.56-43.21l-18.47,72.2c0,2.21,0,1.23,1.53,1.49,14.08,2.39,27.51,3.51,41.52,7.5,28.6,8.15,52.71,23.28,74.99,42.51ZM224.84,449.1v79.5l22.87-17.63c31.52-21.19,56.21-25.16,92.64-31.38,1.52-.26,1.53.73,1.53-1.49l-17.08-71.44c-36.33,2.62-73.15,17.71-99.95,42.45Z"/>
  <path class="st0" d="M396.34,406.6c.71.11,3.1,1.08,3.51,1.73l22.53,47.23,2.96,1.05,26-50.01h21.5c-.32.98,1,2.17,1,2.5v100l-1.5,1.5h-19.5v-64l-21.14,41.86c-5.43,1.41-10.28,1.42-15.72,0l-19.15-39.86c-1.92-1.89-1.98,3.15-1.98,3.5v58.5h-19v-104c6.33.69,14.43-.94,20.5,0Z"/>
  <path class="st2" d="M537.84,266.6v111.5l-1.5,1.5h-19l-1.34-1.66-.17-6.34c-15.64,15.79-44.65,11.03-55.41-8.08-20.68-36.73,14.3-85.51,53.42-57.92v-39h24ZM510.5,356.26c8.46-8.46,6.98-27.8-3.16-34.67-14.61-9.9-30.96,3.07-30.42,19.34.57,17.12,20.52,28.39,33.58,15.33Z"/>
  <path class="st0" d="M897.83,443.59l-.97-4.41,1.59-1.37c3.14-.33,7.15.77,9.93.74,2.37-.02,9.55-2.06,10.34.68-.03,5.77-.95,12.18-.98,17.85-.03,5.24.05,10.63.05,15.95-.02,20.14,5.87,47.21-13.01,60.99-10.83,7.91-32.86,9.12-44.93,4.05-4.14-1.74-19.19-11.74-15.1-17.05,1.01-1.31,13.96-8.65,15.55-8.47,2.57.05,2.77,2.92,4.29,4.06,14.74,11.03,33.51,4.05,33.23-15.02-17.22,15.82-46.4,8.58-53.29-14.2-8.59-28.4,8.57-57.08,40.57-50.57,2.51.51,12.08,7.4,12.72,6.77ZM877.58,454.84c-18.44,2.95-18.33,32.64-.8,36.31,27.6,5.79,28.63-40.76.8-36.31Z"/>
  <path class="st2" d="M445.84,288.6c-1.08.37-2.19-1-2.5-1h-44.5v26h41c1.34,3.81-.01,7.36-.06,11.53-.02,1.54,2.14,7.47-.44,7.47h-40.5v27h48v17.5c0,.29,1.96,1.25-.49,2.22l-71.51-.72v-109.5l1.5-1.5h68l1.5,1.5v19.5Z"/>
  <path class="st0" d="M561.84,439.1l1.65-1.4,20.36.91c-2.92,8.52,3.61,1.45,6.6.1,7.39-3.33,20.22-3.01,27.62.16,33.85,14.51,24.19,80.31-20.28,73.28-5.98-.94-8.86-4.1-13.95-5.55v32.5l-1.5,1.5h-19l-1.5-1.5v-100ZM597.58,454.84c-20.51,3.49-19.03,41.74,6.7,37.69,20.07-3.15,16.09-41.57-6.7-37.69Z"/>
  <path class="st0" d="M667.84,506.6v32.5l-1.5,1.5h-18l-1.5-1.5v-100l1.62-1.43c1.69-.17,3.22,1.01,4.88.95,2.45-.09,11.02-1.52,12.86-.94,2.89.91.19,5.54,3.12,4.91,1.77-.38,2.38-2.45,3.32-2.89,16.76-7.81,37.91-2.74,46.05,14.55,10.71,22.75.69,55.92-27.36,58.34-10.06.87-14.66-2.89-23.49-5.99ZM694.46,457.98c-22.93-15.54-37.97,24.82-16.33,33.82,21.38,8.89,32.26-23.02,16.33-33.82Z"/>
  <path class="st2" d="M574.84,300.6v50.5c0,8.74,17.67,13.21,24.43,5.43,1.11-1.27,4.57-9.09,4.57-10.43v-45.5h23v77.5l-1.5,1.5h-21.5v-7.99c-2.9.12-3.29,3.1-5.65,4.85-8.75,6.48-27.94,5.53-36.57-.86-3.81-2.82-9.78-11.83-9.78-16.5v-58.5h23Z"/>
  <path class="st0" d="M530.83,505.6c-3.88,1.51-6.53,4.44-10.77,5.72-13.67,4.12-33.87-1.24-36.16-17.28-3.99-27.92,25.23-32.63,45.93-26.44.15-11.12-9.65-16.38-19.7-12.2-3.99,1.66-5.45,5.13-8.74,7.22l-15.65-7.48c-2.04-2.63,5.56-9.87,7.63-11.5,13.84-10.95,44.14-10.38,53.67,6.28,6.4,11.19,3.36,33.95,3.76,47.24.09,3.14,2.7,11,.07,12.98s-14.48-.26-18.39.34l-1.64-4.86ZM506.13,482.88c-3.35,4.12-1.46,9.71,3.31,11.61,9.63,3.85,16.32-1.95,20.02-10.41-2.18-7.83-19.53-5.87-23.33-1.2Z"/>
  <path class="st0" d="M812.84,510.6v-42.5c0-3.69-3.03-10.53-6.73-12.27-12.22-5.75-18.33,4.64-19.25,15.28-.87,9.99-.47,20.94-.82,30.98-.04,1.26,2.19,8.5-.7,8.5h-19l-.5-73h19.5l1.51,6c12.33-10.51,34.38-10.7,42.81,4.68.75,1.37,4.18,11.19,4.18,11.82v50l-1.5,1.28c-.41.03-.75-.78-1-.78h-18.5Z"/>
  <path class="st0" d="M731.84,439.1l1.46-1.13c5.93.23,14.4-1.61,19.54,1.13v70l-1.5,1.5h-19l-1.28-1.5c-.03-.41.78-.75.78-1v-69Z"/>
  <path class="st0" d="M751.52,425.28c-7.67,10.45-29.87-.25-20.12-14.63,9.11-13.46,30.41.62,20.12,14.63Z"/>
</svg>